<?xml version="1.0" encoding="UTF-8" standalone="no"?>
<!-- Created with Inkscape (http://www.inkscape.org/) -->

<svg
   viewBox="0 0 215.88203 194.93324"
   version="1.1"
   id="svg1724"
   inkscape:version="1.2.1 (9c6d41e410, 2022-07-14)"
   sodipodi:docname="creator.svg"
   xmlns:inkscape="http://www.inkscape.org/namespaces/inkscape"
   xmlns:sodipodi="http://sodipodi.sourceforge.net/DTD/sodipodi-0.dtd"
   xmlns="http://www.w3.org/2000/svg"
   xmlns:svg="http://www.w3.org/2000/svg">
  <sodipodi:namedview
     id="namedview1726"
     pagecolor="#505050"
     bordercolor="#ffffff"
     borderopacity="1"
     inkscape:showpageshadow="0"
     inkscape:pageopacity="0"
     inkscape:pagecheckerboard="1"
     inkscape:deskcolor="#505050"
     inkscape:document-units="mm"
     showgrid="false"
     inkscape:zoom="4.7572176"
     inkscape:cx="136.63449"
     inkscape:cy="109.93821"
     inkscape:window-width="3440"
     inkscape:window-height="1328"
     inkscape:window-x="0"
     inkscape:window-y="34"
     inkscape:window-maximized="1"
     inkscape:current-layer="g1964" />
  <defs
     id="defs1721" />
  <g
     inkscape:label="Layer 1"
     inkscape:groupmode="layer"
     id="layer1"
     transform="translate(-1.66242,-43.870241)">
    <g
       id="g1964"
       transform="translate(425.48055,-161.77781)">
      <path
         d="m -365.09861,379.00802 c 0,-1.016 -0.0776,-1.98967 -0.27164,-2.96686 -1.40406,-6.74864 -7.37306,-11.86039 -14.51328,-11.86039 -7.17903,0 -13.15156,5.11175 -14.55561,11.86039 -0.19403,0.97719 -0.27164,1.95086 -0.27164,2.96686 0,8.1915 6.63222,14.82725 14.82725,14.82725 8.15269,0 14.78492,-6.63575 14.78492,-14.82725 z m 37.57436,-99.88551 -3.94053,-21.96747 c -0.31044,-1.7145 -1.44286,-3.15736 -3.00214,-3.90172 -0.66322,-0.31045 -1.32644,-0.46567 -1.99319,-0.46567 -0.38806,-0.0388 -0.77964,0.0776 -1.2065,0.11642 -0.23636,0.0776 -0.4692,0.0388 -0.70203,0.11642 -0.508,0.15522 -0.9772,0.46919 -1.40758,0.77963 -0.0776,0.0388 -0.19403,0.0776 -0.27164,0.15523 -0.43039,0.35277 -0.77964,0.78316 -1.09361,1.24883 -0.11642,0.19756 -0.27164,0.31397 -0.38806,0.508 l -11.66636,23.41033 z m 9.99067,-50.87761 c 1.05127,-2.06728 0.38805,-4.68136 -1.64042,-5.93019 -2.02847,-1.28764 -4.68136,-0.77964 -6.08542,1.09361 l 3.86292,2.41652 z m 16.42533,132.61976 v -74.64073 h -100.23581 v 62.81914 c 0,1.95087 -1.59985,3.54895 -3.55036,3.54895 -1.95121,0 -3.55071,-1.59808 -3.55071,-3.54895 v -62.81914 h -2.96545 c -2.92629,0 -5.30613,2.38125 -5.30613,5.26697 v 69.37376 h 24.5812 c 0.23284,-0.19403 0.508,-0.31397 0.77964,-0.508 0.15523,-0.0776 0.35278,-0.19403 0.508,-0.31045 0.93486,-0.5468 1.95087,-1.016 2.96334,-1.40405 0.19755,-0.0811 0.39158,-0.15875 0.58561,-0.23636 1.0548,-0.34925 2.14842,-0.66322 3.2385,-0.89606 0.15875,-0.0388 0.35278,-0.0388 0.508,-0.0776 1.17122,-0.19755 2.38125,-0.31397 3.59128,-0.31397 h 0.0776 0.0388 c 1.21003,0 2.41653,0.11642 3.58775,0.31397 0.15875,0.0388 0.35278,0.0388 0.508,0.0776 1.09361,0.23284 2.1837,0.54681 3.2385,0.89606 0.19403,0.0776 0.39159,0.15522 0.58561,0.23636 1.01248,0.38805 2.02848,0.85725 2.96334,1.40405 0.15875,0.11642 0.35278,0.23284 0.508,0.31045 0.27517,0.19403 0.5468,0.31397 0.77964,0.508 z m 0.43039,-113.65795 -13.81478,-8.6607 -4.32858,-2.7305 -10.37873,-6.5158 -20.447,-12.83759 c -4.953,10.61156 -3.00214,23.44914 4.95653,32.07103 0.42686,-0.34925 0.89606,-0.66322 1.32645,-0.93486 0.0388,-0.0388 0.0776,-0.0388 0.11641,-0.0776 0.31397,-0.19756 0.66322,-0.39158 1.016,-0.54681 0.27164,-0.15522 0.54328,-0.27516 0.85725,-0.39158 0.31045,-0.11642 0.66322,-0.27164 0.97367,-0.34925 0.39158,-0.11994 0.78317,-0.19756 1.17122,-0.31397 0.27517,-0.0388 0.508,-0.11642 0.77964,-0.15522 0.66322,-0.0776 1.32644,-0.11642 1.95086,-0.0776 0.27517,0 0.508,0.0388 0.74436,0.0388 0.50448,0.0388 1.01248,0.11642 1.48167,0.19403 0.23283,0.0776 0.46919,0.11641 0.70203,0.15522 0.70203,0.19756 1.40405,0.43039 2.06728,0.74436 3.66888,1.7145 6.28297,5.10822 7.0238,9.09109 l 0.34925,2.02847 c 9.01347,0.19403 17.75531,-3.7465 23.45267,-10.7315 z m 35.58117,121.14742 c 0.0776,-0.15522 0.15522,-0.27164 0.23636,-0.38805 h -29.1465 v 7.48947 h 26.41247 c 0,-0.0776 0.0388,-0.15522 0.0776,-0.23283 0.19756,-1.13242 0.4692,-2.2225 0.82197,-3.27731 0.0776,-0.19403 0.11642,-0.35278 0.19403,-0.54681 0.39159,-1.0548 0.85725,-2.06727 1.40406,-3.04447 z m 3.04447,25.48114 c -2.19342,-2.13902 -4.79778,-6.94619 -5.50333,-11.2783 h -90.75209 c -0.70203,4.33211 -2.44775,8.39819 -5.50334,11.2783 -9.49362,8.94841 -24.13764,7.88206 -32.18744,0 -3.43869,-3.36703 -4.79954,-6.94619 -5.50157,-11.2783 h -9.91059 c -6.82801,0 -12.40755,-5.53862 -12.40755,-12.36839 V 291.4909 c 0,-6.82625 5.57954,-12.36839 12.40755,-12.36839 h 50.29483 l 12.28725,-24.65916 c -10.96081,-10.96434 -13.73364,-27.97528 -6.86506,-41.78653 l -0.70203,-0.4692 c -1.67922,-1.05128 -2.18722,-3.2385 -1.13241,-4.91419 1.0548,-1.64042 3.2385,-2.14842 4.87891,-1.09361 l 21.41714,13.462 c 3.51367,-5.18936 10.49867,-6.71336 15.84326,-3.35492 5.30577,3.35492 6.985,10.29758 3.86291,15.72331 l 17.79059,11.19716 3.59127,2.2225 c 1.6757,1.05481 2.14489,3.2385 1.12889,4.91773 -0.70202,1.0548 -1.83091,1.64041 -3.00214,1.64041 -0.66322,0 -1.32644,-0.15875 -1.91205,-0.5468 l -0.77964,-0.4692 c -6.75217,8.6607 -17.1697,13.85006 -28.13403,14.00528 l 2.53647,14.12522 h 48.42228 c 8.35025,0 15.95614,4.91773 19.35339,12.56595 l 11.19717,25.24125 14.94367,5.69736 c 6.5158,2.49767 10.88672,8.81945 10.88672,15.80092 v 22.55309 c 4.28978,0.66322 7.56709,4.37091 7.56709,8.85825 v 3.74297 c 0,4.95653 -4.01814,8.97467 -8.97467,8.97467 h -7.45067 c -0.70203,4.33211 -0.6914,4.59615 -5.50333,11.2783 -4.81193,6.68215 -20.8602,11.04629 -32.18745,0 z m 30.89981,-14.82725 c 0,-1.016 -0.11642,-1.98967 -0.31045,-2.96686 -1.36525,-6.74864 -7.37305,-11.86039 -14.51327,-11.86039 -7.14023,0 -13.15156,5.11175 -14.51681,11.86039 -0.19403,0.97719 -0.31045,1.95086 -0.31045,2.96686 0,8.1915 6.67103,14.82725 14.82726,14.82725 8.1915,0 14.82372,-6.63575 14.82372,-14.82725 z m 8.5478,-37.96595 v -2.61408 c 0,-4.05694 -2.53647,-7.72231 -6.28297,-9.16869 l -5.54214,-2.10609 v 11.23598 c 0,1.44638 1.21003,2.65288 2.69522,2.65288 z m 0,19.82259 v -12.72117 h -9.12989 c -5.38691,0 -9.79663,-4.36739 -9.79663,-9.7543 v -13.92767 l -3.11856,-1.21003 h -31.79939 c -6.9462,0 -12.56595,-5.65856 -12.56595,-12.60122 0,-6.9462 5.61975,-12.60475 12.56595,-12.60475 h 6.55461 c 1.95086,0 3.54894,1.60161 3.54894,3.55247 0,1.95086 -1.59808,3.54894 -3.54894,3.54894 h -6.55461 c -3.00567,0 -5.50333,2.45886 -5.50333,5.50334 0,3.04094 2.49766,5.4998 5.50333,5.4998 h 26.99808 l -9.55675,-21.57589 c -2.26483,-5.07294 -7.33778,-8.35025 -12.87639,-8.35025 h -22.12269 v 74.64073 h 35.77872 c 0.27164,-0.19403 0.54681,-0.31397 0.81845,-0.508 0.15522,-0.0776 0.31397,-0.19403 0.508,-0.31045 0.93486,-0.5468 1.91205,-1.016 2.96333,-1.40405 0.19756,-0.0811 0.35278,-0.15875 0.54681,-0.23636 1.0548,-0.34925 2.14488,-0.66322 3.2773,-0.89606 0.15522,-0.0388 0.31397,-0.0388 0.4692,-0.0776 1.17122,-0.19755 2.38125,-0.31397 3.63008,-0.31397 h 0.0388 0.0388 c 1.24883,0 2.45533,0.11642 3.62656,0.31397 0.15522,0.0388 0.31397,0.0388 0.46919,0.0776 1.13242,0.23284 2.2225,0.54681 3.27731,0.89606 0.19402,0.0776 0.39158,0.15522 0.58561,0.23636 1.01247,0.38805 1.98966,0.85725 2.92453,1.40405 0.19755,0.11642 0.35277,0.23284 0.5468,0.31045 0.23636,0.19403 0.508,0.31397 0.77964,0.508 z m 7.56709,12.71764 v -3.74297 c 0,-1.05481 -0.81845,-1.87325 -1.87325,-1.87325 h -2.14489 -8.03628 c 0.0776,0.11641 0.15522,0.23283 0.23283,0.38805 0.54681,0.9772 1.016,1.98967 1.40406,3.04447 0.0776,0.19403 0.15522,0.35278 0.19403,0.54681 0.35278,1.05481 0.66322,2.14489 0.86078,3.27731 0,0.0776 0.0388,0.15522 0.0388,0.23283 h 7.45067 c 1.0548,0 1.87325,-0.81845 1.87325,-1.87325 z m -183.77042,-5.61622 h -17.90877 v 2.2225 c 0,2.92805 2.37984,5.26697 5.30613,5.26697 h 9.87143 c 0.0392,-0.0776 0.078,-0.15522 0.078,-0.23283 0.19509,-1.13242 0.46849,-2.2225 0.81951,-3.27731 0.078,-0.19403 0.15592,-0.35278 0.23389,-0.54681 0.39017,-1.0548 0.85866,-2.06727 1.40476,-3.04447 0.0392,-0.15522 0.11712,-0.27164 0.19509,-0.38805 z m 37.8086,0 c 0.0776,0.11641 0.15523,0.23283 0.23284,0.38805 0.5468,0.9772 0.97719,1.98967 1.36525,3.04447 0.0776,0.19403 0.15522,0.35278 0.23636,0.54681 0.34925,1.05481 0.62441,2.14489 0.81844,3.27731 0.0388,0.0776 0.0388,0.15522 0.0776,0.23283 h 57.16059 v -7.48947 h -59.89109"
         style="fill:#040606;fill-opacity:1;fill-rule:nonzero;stroke:none;stroke-width:0.0352778"
         id="path734"
         sodipodi:nodetypes="scscsssccccccccccccccccccccssscssccccccccscsccccccccccccccccccccccccccccscscccccccsssccsscssssccccccccccccsccccscccscsssczsscscssscsccsscccssccsssssssssccscccccccccscsccccccccssscccccccssccsscccccccccccccccc" />
      <path
         d="m -215.03752,369.83933 v 3.74297 c 0,1.0548 -0.81845,1.87325 -1.87325,1.87325 h -7.45067 c 0,-0.0776 -0.0388,-0.15522 -0.0388,-0.23283 -0.19756,-1.13242 -0.508,-2.2225 -0.86078,-3.27731 -0.0388,-0.19403 -0.11642,-0.35278 -0.19403,-0.54681 -0.38806,-1.0548 -0.85725,-2.06727 -1.40406,-3.04447 -0.0776,-0.15522 -0.15522,-0.27164 -0.23283,-0.38805 h 8.03628 2.14489 c 1.0548,0 1.87325,0.81844 1.87325,1.87325"
         style="fill:#f036a4;fill-opacity:1;fill-rule:nonzero;stroke:none;stroke-width:0.0352778"
         id="path736" />
      <path
         d="m -270.75172,339.36638 c 0,-1.98967 -1.60161,-3.55247 -3.55247,-3.55247 h -8.6607 c -1.95086,0 -3.51366,1.5628 -3.51366,3.55247 0,1.95086 1.5628,3.51014 3.51366,3.51014 h 8.6607 c 1.95086,0 3.55247,-1.55928 3.55247,-3.51014 z m 48.14711,8.77711 v 12.72117 h -11.12308 c -0.27164,-0.19403 -0.54328,-0.31397 -0.77964,-0.508 -0.19403,-0.0776 -0.34925,-0.19403 -0.5468,-0.31045 -0.93487,-0.5468 -1.91206,-1.016 -2.92453,-1.40405 -0.19403,-0.0811 -0.39159,-0.15875 -0.58561,-0.23636 -1.05481,-0.34925 -2.14489,-0.66322 -3.27731,-0.89606 -0.15522,-0.0388 -0.31397,-0.0388 -0.46919,-0.0776 -1.17123,-0.19755 -2.37773,-0.31397 -3.62656,-0.31397 0,0 0,0 -0.0388,0 h -0.0388 c -1.24883,0 -2.45886,0.11642 -3.63008,0.31397 -0.15523,0.0388 -0.31398,0.0388 -0.4692,0.0776 -1.13242,0.23284 -2.2225,0.54681 -3.2773,0.89606 -0.19403,0.0776 -0.34925,0.15522 -0.54681,0.23636 -1.05128,0.38805 -2.02847,0.85725 -2.96333,1.40405 -0.19403,0.11642 -0.35278,0.23284 -0.508,0.31045 -0.27164,0.19403 -0.54681,0.31397 -0.81845,0.508 h -35.77872 v -74.64073 h 22.12269 c 5.53861,0 10.61156,3.27731 12.87639,8.35025 l 9.55675,21.57589 h -26.99808 c -3.00567,0 -5.50333,-2.45886 -5.50333,-5.4998 0,-3.04448 2.49766,-5.50334 5.50333,-5.50334 h 6.55461 c 1.95086,0 3.54894,-1.59808 3.54894,-3.54894 0,-1.95086 -1.59808,-3.55247 -3.54894,-3.55247 h -6.55461 c -6.9462,0 -12.56595,5.65855 -12.56595,12.60475 0,6.94266 5.61975,12.60122 12.56595,12.60122 h 31.79939 l 3.11856,1.21003 v 13.92767 c 0,5.38691 4.40972,9.7543 9.79663,9.7543 h 9.12989"
         style="fill:#8288cc;fill-opacity:1;fill-rule:nonzero;stroke:none;stroke-width:0.0352778"
         id="path738" />
      <path
         d="m -222.60461,338.42799 v 2.61408 h -9.12989 c -1.48519,0 -2.69522,-1.2065 -2.69522,-2.65288 v -11.23598 l 5.54214,2.10609 c 3.7465,1.44638 6.28297,5.11175 6.28297,9.16869"
         style="fill:#f57bc3;fill-opacity:1;fill-rule:nonzero;stroke:none;stroke-width:0.0352778"
         id="path740" />
      <path
         d="m -235.55861,379.00802 c 0,-5.73617 -4.68489,-10.41753 -10.41752,-10.41753 -5.73617,0 -10.41753,4.68136 -10.41753,10.41753 0,5.77497 4.68136,10.45634 10.41753,10.45634 5.73263,0 10.41752,-4.68137 10.41752,-10.45634 z m 4.09575,-2.96686 c 0.19403,0.97719 0.31045,1.95086 0.31045,2.96686 0,8.1915 -6.63222,14.82725 -14.82372,14.82725 -8.15623,0 -14.82726,-6.63575 -14.82726,-14.82725 0,-1.016 0.11642,-1.98967 0.31045,-2.96686 1.36525,-6.74864 7.37658,-11.86039 14.51681,-11.86039 7.14022,0 13.14802,5.11175 14.51327,11.86039"
         style="fill:#c5c8c8;fill-opacity:1;fill-rule:nonzero;stroke:none;stroke-width:0.0352778"
         id="path742" />
      <path
         d="m -242.62122,379.00802 c 0,-1.83444 -1.524,-3.31611 -3.35491,-3.31611 -1.83445,0 -3.31612,1.48167 -3.31612,3.31611 0,1.83445 1.48167,3.35492 3.31612,3.35492 1.83091,0 3.35491,-1.52047 3.35491,-3.35492 z m -3.35491,-10.41753 c 5.73263,0 10.41752,4.68136 10.41752,10.41753 0,5.77497 -4.68489,10.45634 -10.41752,10.45634 -5.73617,0 -10.41753,-4.68137 -10.41753,-10.45634 0,-5.73617 4.68136,-10.41753 10.41753,-10.41753"
         style="fill:#040606;fill-opacity:1;fill-rule:nonzero;stroke:none;stroke-width:0.0352778"
         id="path744" />
      <path
         d="m -245.97613,375.69191 c 1.83091,0 3.35491,1.48167 3.35491,3.31611 0,1.83445 -1.524,3.35492 -3.35491,3.35492 -1.83445,0 -3.31612,-1.52047 -3.31612,-3.35492 0,-1.83444 1.48167,-3.31611 3.31612,-3.31611"
         style="fill:#f036a4;fill-opacity:1;fill-rule:nonzero;stroke:none;stroke-width:0.0352778"
         id="path746" />
      <path
         d="m -264.86033,367.96608 c -0.0811,0.11641 -0.15875,0.23283 -0.23636,0.38805 -0.54681,0.9772 -1.01247,1.98967 -1.40406,3.04447 -0.0776,0.19403 -0.11641,0.35278 -0.19403,0.54681 -0.35277,1.05481 -0.62441,2.14489 -0.82197,3.27731 -0.0388,0.0776 -0.0776,0.15522 -0.0776,0.23283 h -26.41247 v -7.48947 h 29.1465"
         style="fill:#f036a4;fill-opacity:1;fill-rule:nonzero;stroke:none;stroke-width:0.0352778"
         id="path748" />
      <path
         d="m -274.30419,335.81391 c 1.95086,0 3.55247,1.5628 3.55247,3.55247 0,1.95086 -1.60161,3.51014 -3.55247,3.51014 h -8.6607 c -1.95086,0 -3.51366,-1.55928 -3.51366,-3.51014 0,-1.98967 1.5628,-3.55247 3.51366,-3.55247 h 8.6607"
         style="fill:#040606;fill-opacity:1;fill-rule:nonzero;stroke:none;stroke-width:0.0352778"
         id="path750" />
      <path
         d="m -314.49264,238.54601 13.81478,8.6607 c -5.69736,6.985 -14.4392,10.92553 -23.45267,10.7315 l -0.34925,-2.02847 c -0.74083,-3.98287 -3.35492,-7.37659 -7.0238,-9.09109 -0.66323,-0.31397 -1.36525,-0.5468 -2.06728,-0.74436 -0.23284,-0.0388 -0.4692,-0.0776 -0.70203,-0.15522 -0.46919,-0.0776 -0.97719,-0.15522 -1.48167,-0.19403 -0.23636,0 -0.46919,-0.0388 -0.74436,-0.0388 -0.62442,-0.0388 -1.28764,0 -1.95086,0.0776 -0.27164,0.0388 -0.50447,0.11641 -0.77964,0.15522 -0.38805,0.11641 -0.77964,0.19403 -1.17122,0.31397 -0.31045,0.0776 -0.66322,0.23283 -0.97367,0.34925 -0.31397,0.11642 -0.58561,0.23636 -0.85725,0.39158 -0.35278,0.15523 -0.70203,0.34925 -1.016,0.54681 -0.0388,0.0388 -0.0776,0.0388 -0.11641,0.0776 -0.43039,0.27164 -0.89959,0.58561 -1.32645,0.93486 -7.95867,-8.62189 -9.90953,-21.45947 -4.95653,-32.07103 l 20.447,12.83759 10.37873,6.5158 4.32858,2.7305"
         style="fill:#f036a4;fill-opacity:1;fill-rule:nonzero;stroke:none;stroke-width:0.0352778"
         id="path752" />
      <path
         d="m -301.10825,367.96608 v 7.48947 h -57.16059 c -0.0388,-0.0776 -0.0388,-0.15522 -0.0776,-0.23283 -0.19403,-1.13242 -0.46919,-2.2225 -0.81844,-3.27731 -0.0811,-0.19403 -0.15875,-0.35278 -0.23636,-0.54681 -0.38806,-1.0548 -0.81845,-2.06727 -1.36525,-3.04447 -0.0776,-0.15522 -0.15523,-0.27164 -0.23284,-0.38805 h 59.89109"
         style="fill:#f036a4;fill-opacity:1;fill-rule:nonzero;stroke:none;stroke-width:0.0352778"
         id="path754" />
      <path
         d="m -316.59872,337.49313 c 0,-1.95086 -1.59809,-3.54895 -3.54895,-3.54895 h -2.57528 v -26.9628 c 0,-6.4382 -5.26697,-11.66636 -11.70516,-11.66636 h -39.40881 c -6.4382,0 -11.70517,5.22816 -11.70517,11.66636 v 26.9628 h -2.57528 c -1.95086,0 -3.54894,1.59809 -3.54894,3.54895 0,1.95086 1.59808,3.54894 3.54894,3.54894 h 6.12423 55.71772 6.12775 c 1.95086,0 3.54895,-1.59808 3.54895,-3.54894 z m 15.49047,-51.2692 v 74.64073 h -66.56564 c -0.23284,-0.19403 -0.50447,-0.31397 -0.77964,-0.508 -0.15522,-0.0776 -0.34925,-0.19403 -0.508,-0.31045 -0.93486,-0.5468 -1.95086,-1.016 -2.96334,-1.40405 -0.19402,-0.0811 -0.39158,-0.15875 -0.58561,-0.23636 -1.0548,-0.34925 -2.14489,-0.66322 -3.2385,-0.89606 -0.15522,-0.0388 -0.34925,-0.0388 -0.508,-0.0776 -1.17122,-0.19755 -2.37772,-0.31397 -3.58775,-0.31397 -0.0388,0 -0.0388,0 -0.0388,0 -0.0388,0 -0.0388,0 -0.0776,0 -1.21003,0 -2.42006,0.11642 -3.59128,0.31397 -0.15522,0.0388 -0.34925,0.0388 -0.508,0.0776 -1.09008,0.23284 -2.1837,0.54681 -3.2385,0.89606 -0.19403,0.0776 -0.38806,0.15522 -0.58561,0.23636 -1.01247,0.38805 -2.02848,0.85725 -2.96334,1.40405 -0.15522,0.11642 -0.35277,0.23284 -0.508,0.31045 -0.27164,0.19403 -0.5468,0.31397 -0.77964,0.508 h -24.5812 V 291.4909 c 0,-2.88572 2.37984,-5.26697 5.30613,-5.26697 h 2.96545 v 62.81914 c 0,1.95087 1.5995,3.54895 3.55071,3.54895 1.95051,0 3.55036,-1.59808 3.55036,-3.54895 v -62.81914 h 42.412 35.66231 22.1615"
         style="fill:#85d7ec;fill-opacity:1;fill-rule:nonzero;stroke:none;stroke-width:0.0352778"
         id="path756" />
      <path
         d="m -319.174,222.31471 c 2.02847,1.24883 2.69169,3.86291 1.64042,5.93019 l -3.86292,-2.42006 -3.86292,-2.41652 c 1.40406,-1.87325 4.05695,-2.38125 6.08542,-1.09361"
         style="fill:#f57bc3;fill-opacity:1;fill-rule:nonzero;stroke:none;stroke-width:0.0352778"
         id="path758" />
      <path
         d="m -329.82436,333.94418 v -26.9628 c 0,-2.53647 -2.06728,-4.56495 -4.60375,-4.56495 h -39.40881 c -2.53647,0 -4.60375,2.02848 -4.60375,4.56495 v 26.9628 z m 9.67669,0 c 1.95086,0 3.54895,1.59809 3.54895,3.54895 0,1.95086 -1.59809,3.54894 -3.54895,3.54894 h -6.12775 -55.71772 -6.12423 c -1.95086,0 -3.54894,-1.59808 -3.54894,-3.54894 0,-1.95086 1.59808,-3.54895 3.54894,-3.54895 h 2.57528 v -26.9628 c 0,-6.4382 5.26697,-11.66636 11.70517,-11.66636 h 39.40881 c 6.43819,0 11.70516,5.22816 11.70516,11.66636 v 26.9628 h 2.57528"
         style="fill:#040606;fill-opacity:1;fill-rule:nonzero;stroke:none;stroke-width:0.0352778"
         id="path760" />
      <path
         d="m -331.46478,257.15504 3.94053,21.96747 h -25.67164 l 11.66636,-23.41033 c 0.11642,-0.19403 0.27164,-0.31044 0.38806,-0.508 0.31397,-0.46567 0.66322,-0.89606 1.09361,-1.24883 0.0776,-0.0776 0.19402,-0.11642 0.27164,-0.15523 0.43038,-0.31044 0.89958,-0.62441 1.40758,-0.77963 0.23283,-0.0776 0.46567,-0.0388 0.70203,-0.11642 0.42686,-0.0388 0.81844,-0.15522 1.2065,-0.11642 0.66675,0 1.32997,0.15522 1.99319,0.46567 1.55928,0.74436 2.6917,2.18722 3.00214,3.90172"
         style="fill:#f57bc3;fill-opacity:1;fill-rule:nonzero;stroke:none;stroke-width:0.0352778"
         id="path762" />
      <path
         d="m -358.19123,313.14793 c 1.40406,-1.36877 1.40406,-3.63008 0,-4.99533 -1.36525,-1.40406 -3.62655,-1.40406 -4.99533,0 l -8.62189,8.58308 c -1.36525,1.36525 -1.36525,3.63009 0,4.99534 0.70203,0.70203 1.60161,1.05128 2.53647,1.05128 0.89606,0 1.79564,-0.34925 2.49767,-1.05128 z m 17.67417,0 c 1.40406,-1.36877 1.40406,-3.63008 0,-4.99533 -1.36525,-1.40406 -3.62655,-1.40406 -4.9918,0 l -8.58662,8.58308 c -1.40405,1.36525 -1.40405,3.63009 0,4.99534 0.66323,0.70203 1.60162,1.05128 2.49767,1.05128 0.89959,0 1.79564,-0.34925 2.49767,-1.05128 z m 10.6927,-6.16655 v 26.9628 h -48.61631 v -26.9628 c 0,-2.53647 2.06728,-4.56495 4.60375,-4.56495 h 39.40881 c 2.53647,0 4.60375,2.02848 4.60375,4.56495"
         style="fill:#f57bc3;fill-opacity:1;fill-rule:nonzero;stroke:none;stroke-width:0.0352778"
         id="path764" />
      <path
         d="m -340.51706,308.1526 c 1.40406,1.36525 1.40406,3.62656 0,4.99533 l -8.58308,8.58309 c -0.70203,0.70203 -1.59808,1.05128 -2.49767,1.05128 -0.89605,0 -1.83444,-0.34925 -2.49767,-1.05128 -1.40405,-1.36525 -1.40405,-3.63009 0,-4.99534 l 8.58662,-8.58308 c 1.36525,-1.40406 3.62655,-1.40406 4.9918,0"
         style="fill:#040606;fill-opacity:1;fill-rule:nonzero;stroke:none;stroke-width:0.0352778"
         id="path766" />
      <path
         d="m -358.19123,308.1526 c 1.40406,1.36525 1.40406,3.62656 0,4.99533 l -8.58308,8.58309 c -0.70203,0.70203 -1.60161,1.05128 -2.49767,1.05128 -0.93486,0 -1.83444,-0.34925 -2.53647,-1.05128 -1.36525,-1.36525 -1.36525,-3.63009 0,-4.99534 l 8.62189,-8.58308 c 1.36878,-1.40406 3.63008,-1.40406 4.99533,0"
         style="fill:#040606;fill-opacity:1;fill-rule:nonzero;stroke:none;stroke-width:0.0352778"
         id="path768" />
      <path
         d="m -369.466,379.00802 c 0,-5.73617 -4.68137,-10.41753 -10.41753,-10.41753 -5.77497,0 -10.45634,4.68136 -10.45634,10.41753 0,5.77497 4.68137,10.45634 10.45634,10.45634 5.73616,0 10.41753,-4.68137 10.41753,-10.45634 z m 4.09575,-2.96686 c 0.19402,0.97719 0.27164,1.95086 0.27164,2.96686 0,8.1915 -6.63223,14.82725 -14.78492,14.82725 -8.19503,0 -14.82725,-6.63575 -14.82725,-14.82725 0,-1.016 0.0776,-1.98967 0.27164,-2.96686 1.40405,-6.74864 7.37658,-11.86039 14.55561,-11.86039 7.14022,0 13.10922,5.11175 14.51328,11.86039"
         style="fill:#c5c8c8;fill-opacity:1;fill-rule:nonzero;stroke:none;stroke-width:0.0352778"
         id="path770" />
      <path
         d="m -376.56742,379.00802 c 0,-1.83444 -1.48167,-3.31611 -3.31611,-3.31611 -1.87325,0 -3.35492,1.48167 -3.35492,3.31611 0,1.83445 1.48167,3.35492 3.35492,3.35492 1.83444,0 3.31611,-1.52047 3.31611,-3.35492 z m -3.31611,-10.41753 c 5.73616,0 10.41753,4.68136 10.41753,10.41753 0,5.77497 -4.68137,10.45634 -10.41753,10.45634 -5.77497,0 -10.45634,-4.68137 -10.45634,-10.45634 0,-5.73617 4.68137,-10.41753 10.45634,-10.41753"
         style="fill:#040606;fill-opacity:1;fill-rule:nonzero;stroke:none;stroke-width:0.0352778"
         id="path772" />
      <path
         d="m -379.88353,375.69191 c 1.83444,0 3.31611,1.48167 3.31611,3.31611 0,1.83445 -1.48167,3.35492 -3.31611,3.35492 -1.87325,0 -3.35492,-1.52047 -3.35492,-3.35492 0,-1.83444 1.48167,-3.31611 3.35492,-3.31611"
         style="fill:#f036a4;fill-opacity:1;fill-rule:nonzero;stroke:none;stroke-width:0.0352778"
         id="path774" />
      <path
         d="m -398.80794,367.96608 c -0.078,0.11641 -0.15593,0.23283 -0.19509,0.38805 -0.5461,0.9772 -1.01459,1.98967 -1.40476,3.04447 -0.078,0.19403 -0.15593,0.35278 -0.23389,0.54681 -0.35102,1.05481 -0.62442,2.14489 -0.81951,3.27731 0,0.0776 -0.0388,0.15522 -0.078,0.23283 h -9.87143 c -2.92629,0 -5.30613,-2.33892 -5.30613,-5.26697 v -2.2225 h 17.90877"
         style="fill:#f036a4;fill-opacity:1;fill-rule:nonzero;stroke:none;stroke-width:0.0352778"
         id="path776" />
    </g>
  </g>
</svg>
