<?xml version="1.0" encoding="UTF-8" standalone="no"?>
<!-- Created with Inkscape (http://www.inkscape.org/) -->

<svg
   viewBox="0 0 209.83255 209.69624"
   xmlns="http://www.w3.org/2000/svg">
  <g>
    <ellipse
       style="fill: #8444e1; stroke: #0D0D0D; stroke-width: 2.75"
       cx="105"
       cy="105"
       rx="105"
       ry="105" />
    <path
       d="m 145.7,51.7 c 0,-4.127269 -1.2,-7.3 -3.2,-9.6 -0.3,-0.3 -0.6,-0.7 -1,-1 -2.50322,-2.222711 -5.91885,-3.329566 -9.68623,-3.329566 -3.83954,0 -7.317,1.147195 -9.83187,3.459554 -2.51713,2.312294 -4.07392,5.789752 -4.07392,10.450278 0,9.316516 3.84089,35.056859 3.97891,43.096229 0.11293,6.444028 -5.08175,8.707048 -5.02572,17.212488 0.0471,7.22377 4.83616,8.07071 11.33667,8.16036 v 41.28578 l -1.06654,4.77255 0.4199,12.3817 v 0.0224 h 8.52693 l 0.42124,-12.40411 -1.06789,-4.77255 v -41.28578 c 6.49692,-0.0897 11.28739,-0.93659 11.33489,-8.16036 0.056,-8.50544 -5.1,-10.7 -5,-17.2 0.1,-8 4,-33.8 4,-43.1"
       style="fill: #005a08; stroke: #FEFEFE; stroke-width: 1.5"/>
    <path
       d="m 88.2,37.9 c 0,0 0,0 0,0 v 0 16.9 L 77.4,61 66.6,54.7 V 37.8 c 0,0 0,0 0,0 -7,3.8 -11.7,11.2 -11.674565,19.730954 0,8.922184 5.194669,16.634428 12.724076,20.273214 v 90.852951 c 0,2.69773 1.092976,5.14448 2.862623,6.91007 1.544239,1.54606 3.604723,2.57674 5.899127,2.80975 l 0.01389,0.005 c 0.32758,0.0313 0.660986,0.0493 0.99932,0.0493 0.336544,0 0.670398,-0.0179 0.99932,-0.0493 l 0.01389,-0.005 c 4.923554,-0.50639 8.76175,-4.66049 8.76175,-9.71982 V 77.885591 c 7.531199,-3.6 12.7,-11.4 12.7,-20.3 0,-8.5 -4.7,-16 -11.7,-19.7"
       style="fill: #005a08; stroke: #fefefe; stroke-width: 1.5"/>
  </g>
</svg>
